#define desk_hover_width 8
#define desk_hover_height 8
static unsigned char desk_hover_bits[] = {
0x04, 0x0e, 0x3f, 0x1e, 0x1c, 0x24, 0x40, 0x80 };
