#define desk_width 8
#define desk_height 8
static unsigned char desk_bits[] = {
0x99, 0x00, 0x00, 0x81, 0x81, 0x00, 0x00, 0x99 };
