#define max_toggled_width 7
#define max_toggled_height 6
static unsigned char max_toggled_bits[] = {
0x55, 0x00, 0x00, 0x00, 0x00, 0x55 };
