#define shade_toggled_width 7
#define shade_toggled_height 8
static unsigned char shade_toggled_bits[] = {
0x00, 0x08, 0x00, 0x08, 0x00, 0x08, 0x00, 0x08 };
