#define shade_width 7
#define shade_height 8
static unsigned char shade_bits[] = {
0x08, 0x00, 0x08, 0x00, 0x08, 0x00, 0x08, 0x00 };
